<svg xmlns="http://www.w3.org/2000/svg" viewBox="0 0 490.963 490.963">
    <g id="SVGRepo_bgCarrier" stroke-width="0"></g>
    <g id="SVGRepo_tracerCarrier" stroke-linecap="round" stroke-linejoin="round"></g>
    <g id="SVGRepo_iconCarrier" fill="white">
        <g>
            <g>
                <circle cx="244.917" cy="186.398" r="22.5"></circle>
                <circle cx="305.317" cy="246.798" r="22.5"></circle>
                <circle cx="247.017" cy="305.198" r="22.5"></circle>
                <circle cx="186.917" cy="245.098" r="22.5"></circle>
                <path
                    d="M443.017,47.698c-35.9-37.7-142.1-85.2-227.3,0l-167.9,168.9c-89.4,102.3-30.2,197,0,227.3c78.1,78.1,187.5,45.3,227.3,0 l167.9-168.9C483.017,234.898,526.017,134.698,443.017,47.698z M413.817,246.798l-167.9,167.9c-21.9,22.9-93.9,66.8-168.9,0 c-46.9-46.9-46.9-123,0-169.9l168.9-167.9c71.2-66.5,147.9-24.5,167.9,1C476.617,140.798,444.617,215.998,413.817,246.798z"
                ></path>
            </g>
        </g>
    </g>
</svg>
