<svg xmlns="http://www.w3.org/2000/svg">
    <symbol id="logo" viewBox="0 0 316 316">
        <path d="M305.8 81.125C305.77 80.995 305.69 80.885 305.65 80.755C305.56 80.525 305.49 80.285 305.37 80.075C305.29 79.935 305.17 79.815 305.07 79.685C304.94 79.515 304.83 79.325 304.68 79.175C304.55 79.045 304.39 78.955 304.25 78.845C304.09 78.715 303.95 78.575 303.77 78.475L251.32 48.275C249.97 47.495 248.31 47.495 246.96 48.275L194.51 78.475C194.33 78.575 194.19 78.725 194.03 78.845C193.89 78.955 193.73 79.045 193.6 79.175C193.45 79.325 193.34 79.515 193.21 79.685C193.11 79.815 192.99 79.935 192.91 80.075C192.79 80.285 192.71 80.525 192.63 80.755C192.58 80.875 192.51 80.995 192.48 81.125C192.38 81.495 192.33 81.875 192.33 82.265V139.625L148.62 164.795V52.575C148.62 52.185 148.57 51.805 148.47 51.435C148.44 51.305 148.36 51.195 148.32 51.065C148.23 50.835 148.16 50.595 148.04 50.385C147.96 50.245 147.84 50.125 147.74 49.995C147.61 49.825 147.5 49.635 147.35 49.485C147.22 49.355 147.06 49.265 146.92 49.155C146.76 49.025 146.62 48.885 146.44 48.785L93.99 18.585C92.64 17.805 90.98 17.805 89.63 18.585L37.18 48.785C37 48.885 36.86 49.035 36.7 49.155C36.56 49.265 36.4 49.355 36.27 49.485C36.12 49.635 36.01 49.825 35.88 49.995C35.78 50.125 35.66 50.245 35.58 50.385C35.46 50.595 35.38 50.835 35.3 51.065C35.25 51.185 35.18 51.305 35.15 51.435C35.05 51.805 35 52.185 35 52.575V232.235C35 233.795 35.84 235.245 37.19 236.025L142.1 296.425C142.33 296.555 142.58 296.635 142.82 296.725C142.93 296.765 143.04 296.835 143.16 296.865C143.53 296.965 143.9 297.015 144.28 297.015C144.66 297.015 145.03 296.965 145.4 296.865C145.5 296.835 145.59 296.775 145.69 296.745C145.95 296.655 146.21 296.565 146.45 296.435L251.36 236.035C252.72 235.255 253.55 233.815 253.55 232.245V174.885L303.81 145.945C305.17 145.165 306 143.725 306 142.155V82.265C305.95 81.875 305.89 81.495 305.8 81.125ZM144.2 227.205L100.57 202.515L146.39 176.135L196.66 147.195L240.33 172.335L208.29 190.625L144.2 227.205ZM244.75 114.995V164.795L226.39 154.225L201.03 139.625V89.825L219.39 100.395L244.75 114.995ZM249.12 57.105L292.81 82.265L249.12 107.425L205.43 82.265L249.12 57.105ZM114.49 184.425L96.13 194.995V85.305L121.49 70.705L139.85 60.135V169.815L114.49 184.425ZM91.76 27.425L135.45 52.585L91.76 77.745L48.07 52.585L91.76 27.425ZM43.67 60.135L62.03 70.705L87.39 85.305V202.545V202.555V202.565C87.39 202.735 87.44 202.895 87.46 203.055C87.49 203.265 87.49 203.485 87.55 203.695V203.705C87.6 203.875 87.69 204.035 87.76 204.195C87.84 204.375 87.89 204.575 87.99 204.745C87.99 204.745 87.99 204.755 88 204.755C88.09 204.905 88.22 205.035 88.33 205.175C88.45 205.335 88.55 205.495 88.69 205.635L88.7 205.645C88.82 205.765 88.98 205.855 89.12 205.965C89.28 206.085 89.42 206.225 89.59 206.325C89.6 206.325 89.6 206.325 89.61 206.335C89.62 206.335 89.62 206.345 89.63 206.345L139.87 234.775V285.065L43.67 229.705V60.135ZM244.75 229.705L148.58 285.075V234.775L219.8 194.115L244.75 179.875V229.705ZM297.2 139.625L253.49 164.795V114.995L278.85 100.395L297.21 89.825V139.625H297.2Z" />
    </symbol>

    <symbol id="menu" viewBox="0 0 24 24">
        <path stroke="currentColor" stroke-linecap="round" stroke-linejoin="round" stroke-width="2" d="M4 6h16M4 12h16M4 18h16" />
    </symbol>

    <symbol id="close" viewBox="0 0 24 24">
        <path stroke="currentColor" stroke-linecap="round" stroke-linejoin="round" stroke-width="2" d="M6 18L18 6M6 6l12 12" />
    </symbol>

    <symbol id="arrow-down" viewBox="0 0 20 20">
        <path fill-rule="evenodd" d="M5.293 7.293a1 1 0 011.414 0L10 10.586l3.293-3.293a1 1 0 111.414 1.414l-4 4a1 1 0 01-1.414 0l-4-4a1 1 0 010-1.414z" clip-rule="evenodd" />
    </symbol>

    <symbol id="arrow-right" viewBox="0 0 24 24" stroke-width="2">
        <path stroke-linecap="round" stroke-linejoin="round" d="M4.5 12h15m0 0l-6.75-6.75M19.5 12l-6.75 6.75" />
    </symbol>

    <symbol id="trash" viewBox="0 0 16 16">
        <path d="M5.5 5.5A.5.5 0 0 1 6 6v6a.5.5 0 0 1-1 0V6a.5.5 0 0 1 .5-.5m2.5 0a.5.5 0 0 1 .5.5v6a.5.5 0 0 1-1 0V6a.5.5 0 0 1 .5-.5m3 .5a.5.5 0 0 0-1 0v6a.5.5 0 0 0 1 0z"/>
        <path d="M14.5 3a1 1 0 0 1-1 1H13v9a2 2 0 0 1-2 2H5a2 2 0 0 1-2-2V4h-.5a1 1 0 0 1-1-1V2a1 1 0 0 1 1-1H6a1 1 0 0 1 1-1h2a1 1 0 0 1 1 1h3.5a1 1 0 0 1 1 1zM4.118 4 4 4.059V13a1 1 0 0 0 1 1h6a1 1 0 0 0 1-1V4.059L11.882 4zM2.5 3h11V2h-11z"/>
    </symbol>

    <!-- Welcome Page -->

    <symbol id="docs" viewBox="0 0 24 24">
        <path d="M23 4a1 1 0 0 0-1.447-.894L12.224 7.77a.5.5 0 0 1-.448 0L2.447 3.106A1 1 0 0 0 1 4v13.382a1.99 1.99 0 0 0 1.105 1.79l9.448 4.728c.14.065.293.1.447.1.154-.005.306-.04.447-.105l9.453-4.724a1.99 1.99 0 0 0 1.1-1.789V4ZM3 6.023a.25.25 0 0 1 .362-.223l7.5 3.75a.251.251 0 0 1 .138.223v11.2a.25.25 0 0 1-.362.224l-7.5-3.75a.25.25 0 0 1-.138-.22V6.023Zm18 11.2a.25.25 0 0 1-.138.224l-7.5 3.75a.249.249 0 0 1-.329-.099.249.249 0 0 1-.033-.12V9.772a.251.251 0 0 1 .138-.224l7.5-3.75a.25.25 0 0 1 .362.224v11.2Z" />
        <path d="m3.55 1.893 8 4.048a1.008 1.008 0 0 0 .9 0l8-4.048a1 1 0 0 0-.9-1.785l-7.322 3.706a.506.506 0 0 1-.452 0L4.454.108a1 1 0 0 0-.9 1.785H3.55Z" />
    </symbol>

    <symbol id="videos" viewBox="0 0 24 24">
        <g>
            <path d="M24 8.25a.5.5 0 0 0-.5-.5H.5a.5.5 0 0 0-.5.5v12a2.5 2.5 0 0 0 2.5 2.5h19a2.5 2.5 0 0 0 2.5-2.5v-12Zm-7.765 5.868a1.221 1.221 0 0 1 0 2.264l-6.626 2.776A1.153 1.153 0 0 1 8 18.123v-5.746a1.151 1.151 0 0 1 1.609-1.035l6.626 2.776ZM19.564 1.677a.25.25 0 0 0-.177-.427H15.6a.106.106 0 0 0-.072.03l-4.54 4.543a.25.25 0 0 0 .177.427h3.783c.027 0 .054-.01.073-.03l4.543-4.543ZM22.071 1.318a.047.047 0 0 0-.045.013l-4.492 4.492a.249.249 0 0 0 .038.385.25.25 0 0 0 .14.042h5.784a.5.5 0 0 0 .5-.5v-2a2.5 2.5 0 0 0-1.925-2.432ZM13.014 1.677a.25.25 0 0 0-.178-.427H9.101a.106.106 0 0 0-.073.03l-4.54 4.543a.25.25 0 0 0 .177.427H8.4a.106.106 0 0 0 .073-.03l4.54-4.543ZM6.513 1.677a.25.25 0 0 0-.177-.427H2.5A2.5 2.5 0 0 0 0 3.75v2a.5.5 0 0 0 .5.5h1.4a.106.106 0 0 0 .073-.03l4.54-4.543Z" />
        </g>
    </symbol>

    <symbol id="news" viewBox="0 0 24 24">
        <g>
            <path d="M8.75 4.5H5.5c-.69 0-1.25.56-1.25 1.25v4.75c0 .69.56 1.25 1.25 1.25h3.25c.69 0 1.25-.56 1.25-1.25V5.75c0-.69-.56-1.25-1.25-1.25Z" />
            <path d="M24 10a3 3 0 0 0-3-3h-2V2.5a2 2 0 0 0-2-2H2a2 2 0 0 0-2 2V20a3.5 3.5 0 0 0 3.5 3.5h17A3.5 3.5 0 0 0 24 20V10ZM3.5 21.5A1.5 1.5 0 0 1 2 20V3a.5.5 0 0 1 .5-.5h14a.5.5 0 0 1 .5.5v17c0 .295.037.588.11.874a.5.5 0 0 1-.484.625L3.5 21.5ZM22 20a1.5 1.5 0 1 1-3 0V9.5a.5.5 0 0 1 .5-.5H21a1 1 0 0 1 1 1v10Z" />
            <path d="M12.751 6.047h2a.75.75 0 0 1 .75.75v.5a.75.75 0 0 1-.75.75h-2A.75.75 0 0 1 12 7.3v-.5a.75.75 0 0 1 .751-.753ZM12.751 10.047h2a.75.75 0 0 1 .75.75v.5a.75.75 0 0 1-.75.75h-2A.75.75 0 0 1 12 11.3v-.5a.75.75 0 0 1 .751-.753ZM4.751 14.047h10a.75.75 0 0 1 .75.75v.5a.75.75 0 0 1-.75.75h-10A.75.75 0 0 1 4 15.3v-.5a.75.75 0 0 1 .751-.753ZM4.75 18.047h7.5a.75.75 0 0 1 .75.75v.5a.75.75 0 0 1-.75.75h-7.5A.75.75 0 0 1 4 19.3v-.5a.75.75 0 0 1 .75-.753Z" />
        </g>
    </symbol>

    <symbol id="community" viewBox="0 0 24 24">
        <g>
            <path d="M16.597 12.635a.247.247 0 0 0-.08-.237 2.234 2.234 0 0 1-.769-1.68c.001-.195.03-.39.084-.578a.25.25 0 0 0-.09-.267 8.8 8.8 0 0 0-4.826-1.66.25.25 0 0 0-.268.181 2.5 2.5 0 0 1-2.4 1.824.045.045 0 0 0-.045.037 12.255 12.255 0 0 0-.093 3.86.251.251 0 0 0 .208.214c2.22.366 4.367 1.08 6.362 2.118a.252.252 0 0 0 .32-.079 10.09 10.09 0 0 0 1.597-3.733ZM13.616 17.968a.25.25 0 0 0-.063-.407A19.697 19.697 0 0 0 8.91 15.98a.25.25 0 0 0-.287.325c.151.455.334.898.548 1.328.437.827.981 1.594 1.619 2.28a.249.249 0 0 0 .32.044 29.13 29.13 0 0 0 2.506-1.99ZM6.303 14.105a.25.25 0 0 0 .265-.274 13.048 13.048 0 0 1 .205-4.045.062.062 0 0 0-.022-.07 2.5 2.5 0 0 1-.777-.982.25.25 0 0 0-.271-.149 11 11 0 0 0-5.6 2.815.255.255 0 0 0-.075.163c-.008.135-.02.27-.02.406.002.8.084 1.598.246 2.381a.25.25 0 0 0 .303.193 19.924 19.924 0 0 1 5.746-.438ZM9.228 20.914a.25.25 0 0 0 .1-.393 11.53 11.53 0 0 1-1.5-2.22 12.238 12.238 0 0 1-.91-2.465.248.248 0 0 0-.22-.187 18.876 18.876 0 0 0-5.69.33.249.249 0 0 0-.179.336c.838 2.142 2.272 4 4.132 5.353a.254.254 0 0 0 .15.048c1.41-.01 2.807-.282 4.117-.802ZM18.93 12.957l-.005-.008a.25.25 0 0 0-.268-.082 2.21 2.21 0 0 1-.41.081.25.25 0 0 0-.217.2c-.582 2.66-2.127 5.35-5.75 7.843a.248.248 0 0 0-.09.299.25.25 0 0 0 .065.091 28.703 28.703 0 0 0 2.662 2.12.246.246 0 0 0 .209.037c2.579-.701 4.85-2.242 6.456-4.378a.25.25 0 0 0 .048-.189 13.51 13.51 0 0 0-2.7-6.014ZM5.702 7.058a.254.254 0 0 0 .2-.165A2.488 2.488 0 0 1 7.98 5.245a.093.093 0 0 0 .078-.062 19.734 19.734 0 0 1 3.055-4.74.25.25 0 0 0-.21-.41 12.009 12.009 0 0 0-10.4 8.558.25.25 0 0 0 .373.281 12.912 12.912 0 0 1 4.826-1.814ZM10.773 22.052a.25.25 0 0 0-.28-.046c-.758.356-1.55.635-2.365.833a.25.25 0 0 0-.022.48c1.252.43 2.568.65 3.893.65.1 0 .2 0 .3-.008a.25.25 0 0 0 .147-.444c-.526-.424-1.1-.917-1.673-1.465ZM18.744 8.436a.249.249 0 0 0 .15.228 2.246 2.246 0 0 1 1.352 2.054c0 .337-.08.67-.23.972a.25.25 0 0 0 .042.28l.007.009a15.016 15.016 0 0 1 2.52 4.6.25.25 0 0 0 .37.132.25.25 0 0 0 .096-.114c.623-1.464.944-3.039.945-4.63a12.005 12.005 0 0 0-5.78-10.258.25.25 0 0 0-.373.274c.547 2.109.85 4.274.901 6.453ZM9.61 5.38a.25.25 0 0 0 .08.31c.34.24.616.561.8.935a.25.25 0 0 0 .3.127.631.631 0 0 1 .206-.034c2.054.078 4.036.772 5.69 1.991a.251.251 0 0 0 .267.024c.046-.024.093-.047.141-.067a.25.25 0 0 0 .151-.23A29.98 29.98 0 0 0 15.957.764a.25.25 0 0 0-.16-.164 11.924 11.924 0 0 0-2.21-.518.252.252 0 0 0-.215.076A22.456 22.456 0 0 0 9.61 5.38Z" />
        </g>
    </symbol>

</svg>
